<?xml version="1.0" encoding="utf-8"?>
<!-- Generator: Adobe Illustrator 23.0.3, SVG Export Plug-In . SVG Version: 6.00 Build 0)  -->
<svg version="1.1" xmlns="http://www.w3.org/2000/svg" xmlns:xlink="http://www.w3.org/1999/xlink" x="0px" y="0px"
	 viewBox="0 0 112 72" style="enable-background:new 0 0 112 72;" xml:space="preserve">
<style type="text/css">
	.st0{display:none;}
	.st1{display:inline;fill:#FFFFFF;stroke:#000000;stroke-miterlimit:10;}
	.st2{display:inline;fill:#36357E;}
	.st3{display:inline;}
	.st4{fill:#FE4400;}
	.st5{display:inline;fill:#9B8781;}
	.st6{display:inline;opacity:0.5;fill:#9B8781;}
	.st7{display:inline;fill:#333333;}
	.st8{fill:#FFFFFF;}
	.st9{fill:#333333;}
	.st10{display:none;fill:#FE4400;}
	.st11{fill:#A8A8D0;}
	.st12{fill:#36357E;}
	.st13{fill:#CCCCCC;}
	.st14{fill:#6D6D6D;}
	.st15{display:none;fill:#333333;}
	.st16{fill:none;stroke:#000000;stroke-miterlimit:10;}
	.st17{fill:none;stroke:#000000;stroke-miterlimit:10;stroke-dasharray:12.2759,12.2759;}
	.st18{fill:none;stroke:#000000;stroke-miterlimit:10;stroke-dasharray:12.1065,12.1065;}
	.st19{fill:none;stroke:#000000;stroke-miterlimit:10;stroke-dasharray:11.6552,11.6552;}
	.st20{fill:none;stroke:#000000;stroke-miterlimit:10;stroke-dasharray:12.3529,12.3529;}
	.st21{fill:none;stroke:#000000;stroke-miterlimit:10;stroke-dasharray:11.2,11.2;}
	.st22{fill:none;stroke:#000000;stroke-miterlimit:10;stroke-dasharray:11.3524,11.3524;}
	.st23{fill:none;stroke:#000000;stroke-miterlimit:10;stroke-dasharray:11.5556,11.5556;}
	.st24{fill:none;stroke:#000000;stroke-miterlimit:10;stroke-dasharray:12.4,12.4;}
	.st25{fill:none;stroke:#000000;stroke-miterlimit:10;stroke-dasharray:12.3333,12.3333;}
	.st26{fill:none;stroke:#000000;stroke-miterlimit:10;stroke-dasharray:11.0769,11.0769;}
	.st27{fill:none;stroke:#FE4400;stroke-miterlimit:10;}
	.st28{fill:none;stroke:#FE4400;stroke-miterlimit:10;stroke-dasharray:12.3333,12.3333;}
	.st29{fill:none;stroke:#FE4400;stroke-miterlimit:10;stroke-dasharray:11.0769,11.0769;}
	.st30{fill:none;stroke:#FE4400;stroke-miterlimit:10;stroke-dasharray:12.2759,12.2759;}
	.st31{fill:none;stroke:#FE4400;stroke-miterlimit:10;stroke-dasharray:12.1065,12.1065;}
	.st32{display:inline;fill:none;stroke:#666666;stroke-width:2;stroke-miterlimit:10;}
	.st33{display:inline;fill:#FFFFFF;}
	.st34{display:inline;fill:#FE4400;}
	.st35{clip-path:url(#SVGID_2_);fill:#FE4400;}
	.st36{fill:#E5E5E5;}
	.st37{clip-path:url(#SVGID_4_);fill:#FE4400;}
	.st38{clip-path:url(#SVGID_6_);fill:#333333;}
</style>
<g id="Camada_1" class="st0">
	<rect x="-667.54" y="-869" class="st1" width="514.47" height="312"/>
	<rect x="-1894.48" y="-869.47" class="st2" width="514.47" height="312"/>
	<g class="st3">
		<g>
			<path class="st4" d="M-2146.48-235.96c1.93,0,1.93-3,0-3C-2148.41-238.96-2148.41-235.96-2146.48-235.96L-2146.48-235.96z"/>
		</g>
	</g>
	<g>
		<rect x="-1885.5" y="-483.5" class="st5" width="50" height="152"/>
		<rect x="-1576.5" y="-717.5" class="st6" width="28" height="152"/>
		<rect x="-1496.5" y="-717.5" class="st6" width="28" height="239"/>
		<rect x="-1386.5" y="-557.5" class="st6" width="42" height="152"/>
		<rect x="-1619.5" y="-557.5" class="st6" width="71" height="152"/>
		<rect x="-1496.5" y="-557.5" class="st6" width="71" height="152"/>
	</g>
	<g id="alinhamento_letras_dots">
		<rect x="-1669.5" y="-483.5" class="st7" width="50" height="85"/>
		<rect x="-1547.5" y="-483.5" class="st7" width="50" height="85"/>
		<rect x="-1427.5" y="-483.5" class="st7" width="50" height="85"/>
		<rect x="-1334.5" y="-483.5" class="st7" width="234" height="85"/>
	</g>
	<g id="FIFO" class="st3">
		<g id="dots_line">
			<rect x="-1769.33" y="-643.52" class="st8" width="236.54" height="2"/>
			<circle class="st8" cx="-1767.47" cy="-642.52" r="12.5"/>
			<circle class="st8" cx="-1701.05" cy="-642.52" r="12.5"/>
			<circle class="st8" cx="-1635.18" cy="-642.52" r="12.5"/>
			<circle class="st9" cx="-1534.46" cy="-642.52" r="12.5"/>
			<text transform="matrix(1 0 0 1 -1775.5785 -597.692)" class="st8" style="font-family:'Metropolis-SemiBold'; font-size:30px;">sua fila de jogos</text>
		</g>
		<g id="fifo_text">
			<path class="st4" d="M-1753.69-791.15h23.51v23.21h-23.51v95.62h-27.35v-95.62h-22.63v-23.21h22.63v-12.41
				c0-20,13.79-34.25,33.56-34.25c8.96,0,18.62,3.68,25.28,9.42l-8.05,17.93c-2.53-2.53-6.9-4.37-11.72-4.37
				c-6.67,0-11.72,5.75-11.72,13.79V-791.15z"/>
			<path class="st4" d="M-1716.68-819.72c0-8.51,7.13-15.86,16.09-15.86c8.73,0,15.86,7.35,15.86,15.86
				c0,8.5-7.13,16.09-15.86,16.09C-1709.56-803.63-1716.68-811.22-1716.68-819.72z M-1714.84-791.15h28.04v118.83h-28.04V-791.15z"
				/>
			<path class="st4" d="M-1621.55-791.15h23.66v23.21h-23.66v95.62h-27.35v-95.62h-22.48v-23.21h22.48v-12.41
				c0-20,13.79-34.25,33.56-34.25c8.96,0,18.62,3.68,25.28,9.42l-8.04,17.93c-2.53-2.53-6.9-4.37-11.72-4.37
				c-6.67,0-11.72,5.75-11.72,13.79V-791.15z"/>
			<path class="st4" d="M-1598.17-731.84c0-33.79,29.19-62.06,63.67-62.06s63.67,28.27,63.67,62.06s-29.19,62.29-63.67,62.29
				S-1598.17-698.06-1598.17-731.84z M-1498.41-731.84c0-20.69-16.55-38.16-36.09-38.16c-19.77,0-36.32,17.47-36.32,38.16
				c0,20.92,16.55,38.38,36.32,38.38C-1514.96-693.46-1498.41-710.93-1498.41-731.84z"/>
			<rect x="-1726.91" y="-791.42" class="st10" width="13.61" height="119.22"/>
			<rect x="-1686.62" y="-791.42" class="st10" width="13.61" height="119.22"/>
			<rect x="-1601.7" y="-791.42" class="st10" width="13.61" height="119.22"/>
		</g>
	</g>
	<rect x="-1285.48" y="-869.47" class="st1" width="514.47" height="312"/>
	
		<text transform="matrix(1 0 0 1 -1894.8193 -884.0269)" style="display:inline;fill:#4D4D4D; font-family:'Metropolis-Regular'; font-size:24px;">Logo - aplicação BG azul</text>
	
		<text transform="matrix(1 0 0 1 -1830.8193 14.7731)" style="display:inline;fill:#4D4D4D; font-family:'Metropolis-Regular'; font-size:24px;">Logo completa - dimensões gerais px</text>
	
		<text transform="matrix(1 0 0 1 -1769.8193 547.373)" style="display:inline;fill:#4D4D4D; font-family:'Metropolis-Regular'; font-size:24px;">Logo completa - dimensões gerais px</text>
	
		<text transform="matrix(1 0 0 1 -1285.8193 -884.0269)" style="display:inline;fill:#4D4D4D; font-family:'Metropolis-Regular'; font-size:24px;">Logo - aplicação BG branco/cinza</text>
	
		<text transform="matrix(1 0 0 1 -667.8799 -883.5533)" style="display:inline;fill:#4D4D4D; font-family:'Metropolis-Regular'; font-size:24px;">Logo - aplicação escala de cinza</text>
	<rect x="-667.54" y="-465" class="st1" width="514.47" height="312"/>
	<rect x="-1894.48" y="-465.47" class="st2" width="514.47" height="312"/>
	<g id="FIFO_7_" class="st3">
		<g id="dots_line_7_">
			<rect x="-1769.33" y="-239.52" class="st8" width="236.54" height="2"/>
			<circle class="st8" cx="-1767.47" cy="-238.52" r="12.5"/>
			<circle class="st8" cx="-1701.05" cy="-238.52" r="12.5"/>
			<circle class="st8" cx="-1635.18" cy="-238.52" r="12.5"/>
			<circle class="st9" cx="-1534.46" cy="-238.52" r="12.5"/>
		</g>
		<g id="fifo_text_7_">
			<path class="st4" d="M-1753.69-387.15h23.51v23.21h-23.51v95.62h-27.35v-95.62h-22.63v-23.21h22.63v-12.41
				c0-20,13.79-34.25,33.56-34.25c8.96,0,18.62,3.68,25.28,9.42l-8.05,17.93c-2.53-2.53-6.9-4.37-11.72-4.37
				c-6.67,0-11.72,5.75-11.72,13.79V-387.15z"/>
			<path class="st4" d="M-1716.68-415.72c0-8.51,7.13-15.86,16.09-15.86c8.73,0,15.86,7.35,15.86,15.86
				c0,8.5-7.13,16.09-15.86,16.09C-1709.56-399.63-1716.68-407.22-1716.68-415.72z M-1714.84-387.15h28.04v118.83h-28.04V-387.15z"
				/>
			<path class="st4" d="M-1621.55-387.15h23.66v23.21h-23.66v95.62h-27.35v-95.62h-22.48v-23.21h22.48v-12.41
				c0-20,13.79-34.25,33.56-34.25c8.96,0,18.62,3.68,25.28,9.42l-8.04,17.93c-2.53-2.53-6.9-4.37-11.72-4.37
				c-6.67,0-11.72,5.75-11.72,13.79V-387.15z"/>
			<path class="st4" d="M-1598.17-327.84c0-33.79,29.19-62.06,63.67-62.06s63.67,28.27,63.67,62.06s-29.19,62.29-63.67,62.29
				S-1598.17-294.06-1598.17-327.84z M-1498.41-327.84c0-20.69-16.55-38.16-36.09-38.16c-19.77,0-36.32,17.47-36.32,38.16
				c0,20.92,16.55,38.38,36.32,38.38C-1514.96-289.46-1498.41-306.93-1498.41-327.84z"/>
			<rect x="-1726.91" y="-387.42" class="st10" width="13.61" height="119.22"/>
			<rect x="-1686.62" y="-387.42" class="st10" width="13.61" height="119.22"/>
			<rect x="-1601.7" y="-387.42" class="st10" width="13.61" height="119.22"/>
		</g>
	</g>
	<rect x="-1285.48" y="-465.47" class="st1" width="514.47" height="312"/>
	<g id="FIFO_6_" class="st3">
		<g id="dots_line_6_">
			<rect x="-1160.33" y="-239.52" class="st11" width="236.54" height="2"/>
			<circle class="st11" cx="-1158.47" cy="-238.52" r="12.5"/>
			<circle class="st11" cx="-1092.05" cy="-238.52" r="12.5"/>
			<circle class="st11" cx="-1026.18" cy="-238.52" r="12.5"/>
			<circle class="st12" cx="-925.46" cy="-238.52" r="12.5"/>
		</g>
		<g id="fifo_text_6_">
			<path class="st4" d="M-1144.69-387.15h23.51v23.21h-23.51v95.62h-27.35v-95.62h-22.63v-23.21h22.63v-12.41
				c0-20,13.79-34.25,33.56-34.25c8.96,0,18.62,3.68,25.28,9.42l-8.05,17.93c-2.53-2.53-6.9-4.37-11.72-4.37
				c-6.67,0-11.72,5.75-11.72,13.79V-387.15z"/>
			<path class="st4" d="M-1107.68-415.72c0-8.51,7.13-15.86,16.09-15.86c8.73,0,15.86,7.35,15.86,15.86
				c0,8.5-7.13,16.09-15.86,16.09C-1100.56-399.63-1107.68-407.22-1107.68-415.72z M-1105.84-387.15h28.04v118.83h-28.04V-387.15z"
				/>
			<path class="st4" d="M-1012.55-387.15h23.66v23.21h-23.66v95.62h-27.35v-95.62h-22.48v-23.21h22.48v-12.41
				c0-20,13.79-34.25,33.56-34.25c8.96,0,18.62,3.68,25.28,9.42l-8.04,17.93c-2.53-2.53-6.9-4.37-11.72-4.37
				c-6.67,0-11.72,5.75-11.72,13.79V-387.15z"/>
			<path class="st4" d="M-989.17-327.84c0-33.79,29.19-62.06,63.67-62.06s63.67,28.27,63.67,62.06s-29.19,62.29-63.67,62.29
				S-989.17-294.06-989.17-327.84z M-889.41-327.84c0-20.69-16.55-38.16-36.09-38.16c-19.77,0-36.32,17.47-36.32,38.16
				c0,20.92,16.55,38.38,36.32,38.38C-905.96-289.46-889.41-306.93-889.41-327.84z"/>
			<rect x="-1117.91" y="-387.42" class="st10" width="13.61" height="119.22"/>
			<rect x="-1077.62" y="-387.42" class="st10" width="13.61" height="119.22"/>
			<rect x="-992.7" y="-387.42" class="st10" width="13.61" height="119.22"/>
		</g>
	</g>
	<g id="FIFO_5_" class="st3">
		<g id="dots_line_5_">
			<rect x="-530.33" y="-239.52" class="st13" width="236.54" height="2"/>
			<circle class="st13" cx="-528.47" cy="-238.52" r="12.5"/>
			<circle class="st13" cx="-462.05" cy="-238.52" r="12.5"/>
			<circle class="st13" cx="-396.18" cy="-238.52" r="12.5"/>
			<circle class="st14" cx="-295.46" cy="-238.52" r="12.5"/>
		</g>
		<g id="fifo_text_5_">
			<path class="st9" d="M-514.69-387.15h23.51v23.21h-23.51v95.62h-27.35v-95.62h-22.63v-23.21h22.63v-12.41
				c0-20,13.79-34.25,33.56-34.25c8.96,0,18.62,3.68,25.28,9.42l-8.04,17.93c-2.53-2.53-6.9-4.37-11.72-4.37
				c-6.67,0-11.72,5.75-11.72,13.79V-387.15z"/>
			<path class="st9" d="M-477.68-415.72c0-8.51,7.13-15.86,16.09-15.86c8.73,0,15.86,7.35,15.86,15.86c0,8.5-7.13,16.09-15.86,16.09
				C-470.56-399.63-477.68-407.22-477.68-415.72z M-475.84-387.15h28.04v118.83h-28.04V-387.15z"/>
			<path class="st9" d="M-382.55-387.15h23.66v23.21h-23.66v95.62h-27.35v-95.62h-22.48v-23.21h22.48v-12.41
				c0-20,13.79-34.25,33.56-34.25c8.96,0,18.62,3.68,25.28,9.42l-8.04,17.93c-2.53-2.53-6.9-4.37-11.72-4.37
				c-6.67,0-11.72,5.75-11.72,13.79V-387.15z"/>
			<path class="st9" d="M-359.17-327.84c0-33.79,29.19-62.06,63.67-62.06s63.67,28.27,63.67,62.06s-29.19,62.29-63.67,62.29
				S-359.17-294.06-359.17-327.84z M-259.41-327.84c0-20.69-16.55-38.16-36.09-38.16c-19.77,0-36.32,17.47-36.32,38.16
				c0,20.92,16.55,38.38,36.32,38.38C-275.96-289.46-259.41-306.93-259.41-327.84z"/>
			<rect x="-487.91" y="-387.42" class="st15" width="13.61" height="119.22"/>
			<rect x="-447.62" y="-387.42" class="st15" width="13.61" height="119.22"/>
			<rect x="-362.7" y="-387.42" class="st15" width="13.61" height="119.22"/>
		</g>
	</g>
	
		<text transform="matrix(1 0 0 1 -1894.8193 -480.0269)" style="display:inline;fill:#4D4D4D; font-family:'Metropolis-Regular'; font-size:24px;">Logo icon - aplicação BG azul</text>
	
		<text transform="matrix(1 0 0 1 -1285.8193 -480.0269)" style="display:inline;fill:#4D4D4D; font-family:'Metropolis-Regular'; font-size:24px;">Logo icon - aplicação BG branco/cinza</text>
	
		<text transform="matrix(1 0 0 1 -667.8799 -479.5533)" style="display:inline;fill:#4D4D4D; font-family:'Metropolis-Regular'; font-size:24px;">Logo icon - aplicação escala de cinza</text>
	<g class="st3">
		<g>
			<polyline class="st16" points="-1470.12,324 -1470.12,330 -1476.12,330 			"/>
			<line class="st17" x1="-1488.4" y1="330" x2="-1825.99" y2="330"/>
			<polyline class="st16" points="-1832.12,330 -1838.12,330 -1838.12,324 			"/>
			<line class="st18" x1="-1838.12" y1="311.89" x2="-1838.12" y2="75.82"/>
			<polyline class="st16" points="-1838.12,69.76 -1838.12,63.76 -1832.12,63.76 			"/>
			<line class="st17" x1="-1819.85" y1="63.76" x2="-1482.26" y2="63.76"/>
			<polyline class="st16" points="-1476.12,63.76 -1470.12,63.76 -1470.12,69.76 			"/>
			<line class="st18" x1="-1470.12" y1="81.87" x2="-1470.12" y2="317.95"/>
		</g>
	</g>
	<text transform="matrix(1 0 0 1 -1687.4785 363.3726)" class="st3" style="font-family:'Metropolis-SemiBold'; font-size:21px;">350px</text>
	<text transform="matrix(0 -1 1 0 -1440.1558 225.6572)" class="st3" style="font-family:'Metropolis-SemiBold'; font-size:21px;">260px</text>
	<g id="FIFO_3_" class="st3">
		<g id="dots_line_3_">
			<rect x="-795.35" y="270.71" class="st11" width="247.32" height="2"/>
			<circle class="st11" cx="-793.4" cy="271.71" r="13.07"/>
			<circle class="st11" cx="-723.96" cy="271.71" r="13.07"/>
			<circle class="st11" cx="-655.08" cy="271.71" r="13.07"/>
			<circle class="st12" cx="-549.78" cy="271.71" r="13.07"/>
		</g>
		<g id="fifo_text_3_">
			<path class="st4" d="M-778.99,116.31h24.58v24.27h-24.58v99.98h-28.6v-99.98h-23.66v-24.27h23.66v-12.98
				c0-20.91,14.42-35.81,35.09-35.81c9.37,0,19.47,3.85,26.44,9.85l-8.41,18.75c-2.64-2.64-7.21-4.57-12.26-4.57
				c-6.97,0-12.26,6.01-12.26,14.42V116.31z"/>
			<path class="st4" d="M-740.3,86.44c0-8.89,7.45-16.58,16.82-16.58c9.13,0,16.58,7.69,16.58,16.58c0,8.89-7.45,16.82-16.58,16.82
				C-732.85,103.26-740.3,95.33-740.3,86.44z M-738.38,116.31h29.32v124.25h-29.32V116.31z"/>
			<path class="st4" d="M-640.83,116.31h24.74v24.27h-24.74v99.98h-28.6v-99.98h-23.5v-24.27h23.5v-12.98
				c0-20.91,14.42-35.81,35.09-35.81c9.37,0,19.47,3.85,26.44,9.85l-8.41,18.75c-2.64-2.64-7.21-4.57-12.26-4.57
				c-6.97,0-12.26,6.01-12.26,14.42V116.31z"/>
			<path class="st4" d="M-616.39,178.32c0-35.33,30.52-64.89,66.57-64.89c36.05,0,66.57,29.56,66.57,64.89s-30.52,65.13-66.57,65.13
				C-585.86,243.45-616.39,213.65-616.39,178.32z M-512.08,178.32c0-21.63-17.3-39.89-37.73-39.89c-20.67,0-37.97,18.26-37.97,39.89
				c0,21.87,17.3,40.13,37.97,40.13C-529.39,218.45-512.08,200.19-512.08,178.32z"/>
			<rect x="-751" y="116.03" class="st10" width="14.23" height="124.66"/>
			<rect x="-708.87" y="116.03" class="st10" width="14.23" height="124.66"/>
			<rect x="-620.08" y="116.03" class="st10" width="14.23" height="124.66"/>
		</g>
	</g>
	
		<text transform="matrix(1 0 0 1 -835.8193 14.7731)" style="display:inline;fill:#4D4D4D; font-family:'Metropolis-Regular'; font-size:24px;">Logo icon - dimensões gerais px</text>
	<g class="st3">
		<g>
			<polyline class="st16" points="-482,279 -482,285 -488,285 			"/>
			<line class="st19" x1="-499.66" y1="285" x2="-820.17" y2="285"/>
			<polyline class="st16" points="-826,285 -832,285 -832,279 			"/>
			<line class="st20" x1="-832" y1="266.65" x2="-832" y2="75.18"/>
			<polyline class="st16" points="-832,69 -832,63 -826,63 			"/>
			<line class="st19" x1="-814.34" y1="63" x2="-493.83" y2="63"/>
			<polyline class="st16" points="-488,63 -482,63 -482,69 			"/>
			<line class="st20" x1="-482" y1="81.35" x2="-482" y2="272.82"/>
		</g>
	</g>
	<text transform="matrix(1 0 0 1 -692.4785 330.3726)" class="st3" style="font-family:'Metropolis-SemiBold'; font-size:21px;">350px</text>
	<text transform="matrix(0 -1 1 0 -445.1558 225.6572)" class="st3" style="font-family:'Metropolis-SemiBold'; font-size:21px;">220 px</text>
	<g id="FIFO_12_" class="st3">
		<g id="dots_line_12_">
			<rect x="-1089.68" y="711.06" class="st11" width="127.92" height="1.03"/>
			<circle class="st11" cx="-1088.67" cy="711.58" r="6.76"/>
			<circle class="st11" cx="-1052.75" cy="711.58" r="6.76"/>
			<circle class="st11" cx="-1017.13" cy="711.58" r="6.76"/>
			<circle class="st12" cx="-962.66" cy="711.58" r="6.76"/>
		</g>
		<g id="fifo_text_12_">
			<path class="st4" d="M-1081.22,631.2h12.71v12.55h-12.71v51.71h-14.79v-51.71h-12.24V631.2h12.24v-6.71
				c0-10.81,7.46-18.52,18.15-18.52c4.85,0,10.07,1.99,13.67,5.1l-4.35,9.7c-1.37-1.37-3.73-2.36-6.34-2.36
				c-3.6,0-6.34,3.11-6.34,7.46V631.2z"/>
			<path class="st4" d="M-1061.21,615.75c0-4.6,3.85-8.58,8.7-8.58c4.72,0,8.58,3.98,8.58,8.58c0,4.6-3.85,8.7-8.58,8.7
				C-1057.35,624.45-1061.21,620.35-1061.21,615.75z M-1060.21,631.2h15.17v64.27h-15.17V631.2z"/>
			<path class="st4" d="M-1009.76,631.2h12.8v12.55h-12.8v51.71h-14.79v-51.71h-12.16V631.2h12.16v-6.71
				c0-10.81,7.46-18.52,18.15-18.52c4.85,0,10.07,1.99,13.67,5.1l-4.35,9.7c-1.37-1.37-3.73-2.36-6.34-2.36
				c-3.6,0-6.34,3.11-6.34,7.46V631.2z"/>
			<path class="st4" d="M-997.11,663.27c0-18.27,15.79-33.56,34.43-33.56s34.43,15.29,34.43,33.56c0,18.27-15.79,33.69-34.43,33.69
				S-997.11,681.55-997.11,663.27z M-943.17,663.27c0-11.19-8.95-20.63-19.52-20.63c-10.69,0-19.64,9.45-19.64,20.63
				c0,11.31,8.95,20.76,19.64,20.76C-952.12,684.03-943.17,674.58-943.17,663.27z"/>
			<rect x="-1066.74" y="631.06" class="st10" width="7.36" height="64.48"/>
			<rect x="-1044.95" y="631.06" class="st10" width="7.36" height="64.48"/>
			<rect x="-999.02" y="631.06" class="st10" width="7.36" height="64.48"/>
		</g>
	</g>
	
		<text transform="matrix(1 0 0 1 -1191.8193 547.3733)" style="display:inline;fill:#4D4D4D; font-family:'Metropolis-Regular'; font-size:24px;">Logo icon - dimensões gerais px</text>
	<g class="st3">
		<g>
			<polyline class="st16" points="-928,711.09 -928,717.09 -934,717.09 			"/>
			<line class="st21" x1="-945.2" y1="717.09" x2="-1096.4" y2="717.09"/>
			<polyline class="st16" points="-1102,717.09 -1108,717.09 -1108,711.09 			"/>
			<line class="st22" x1="-1108" y1="699.73" x2="-1108" y2="614.59"/>
			<polyline class="st16" points="-1108,608.91 -1108,602.91 -1102,602.91 			"/>
			<line class="st21" x1="-1090.8" y1="602.91" x2="-939.6" y2="602.91"/>
			<polyline class="st16" points="-934,602.91 -928,602.91 -928,608.91 			"/>
			<line class="st22" x1="-928" y1="620.27" x2="-928" y2="705.41"/>
		</g>
	</g>
	<text transform="matrix(1 0 0 1 -1036.4785 758.3726)" class="st3" style="font-family:'Metropolis-SemiBold'; font-size:21px;">180px</text>
	<text transform="matrix(0 -1 1 0 -898.1558 686.6572)" class="st3" style="font-family:'Metropolis-SemiBold'; font-size:21px;">110 px</text>
	<g id="FIFO_8_" class="st3">
		<g id="dots_line_8_">
			<rect x="-321.9" y="176.59" class="st11" width="78.17" height="0.7"/>
			<ellipse class="st11" cx="-321.29" cy="176.94" rx="4.13" ry="4.21"/>
			<ellipse class="st11" cx="-299.33" cy="176.94" rx="4.13" ry="4.21"/>
			<ellipse class="st11" cx="-277.56" cy="176.94" rx="4.13" ry="4.21"/>
			<ellipse class="st12" cx="-244.28" cy="176.94" rx="4.13" ry="4.21"/>
		</g>
		<g id="fifo_text_8_">
			<path class="st4" d="M-316.73,126.87h7.77v7.82h-7.77v32.21h-9.04v-32.21h-7.48v-7.82h7.48v-4.18c0-6.74,4.56-11.54,11.09-11.54
				c2.96,0,6.15,1.24,8.36,3.17l-2.66,6.04c-0.84-0.85-2.28-1.47-3.87-1.47c-2.2,0-3.87,1.94-3.87,4.65V126.87z"/>
			<path class="st4" d="M-304.5,117.25c0-2.87,2.35-5.34,5.32-5.34c2.89,0,5.24,2.48,5.24,5.34c0,2.86-2.35,5.42-5.24,5.42
				C-302.15,122.67-304.5,120.11-304.5,117.25z M-303.89,126.87h9.27v40.03h-9.27V126.87z"/>
			<path class="st4" d="M-273.06,126.87h7.82v7.82h-7.82v32.21h-9.04v-32.21h-7.43v-7.82h7.43v-4.18c0-6.74,4.56-11.54,11.09-11.54
				c2.96,0,6.15,1.24,8.36,3.17l-2.66,6.04c-0.84-0.85-2.28-1.47-3.87-1.47c-2.2,0-3.87,1.94-3.87,4.65V126.87z"/>
			<path class="st4" d="M-265.33,146.85c0-11.38,9.65-20.91,21.04-20.91c11.39,0,21.04,9.52,21.04,20.91
				c0,11.38-9.65,20.98-21.04,20.98C-255.69,167.84-265.33,158.23-265.33,146.85z M-232.37,146.85c0-6.97-5.47-12.85-11.93-12.85
				c-6.53,0-12,5.88-12,12.85c0,7.05,5.47,12.93,12,12.93C-237.83,159.78-232.37,153.9-232.37,146.85z"/>
			<rect x="-307.88" y="126.78" class="st10" width="4.5" height="40.17"/>
			<rect x="-294.57" y="126.78" class="st10" width="4.5" height="40.17"/>
			<rect x="-266.5" y="126.78" class="st10" width="4.5" height="40.17"/>
		</g>
	</g>
	<text transform="matrix(1 0 0 1 -353.8193 33.3732)" class="st3"><tspan x="0" y="0" style="fill:#4D4D4D; font-family:'Metropolis-Regular'; font-size:24px;">Logo icon - MENU</tspan><tspan x="0" y="28.8" style="fill:#4D4D4D; font-family:'Metropolis-Regular'; font-size:24px;">dimensões gerais px </tspan></text>
	<g class="st3">
		<g>
			<polyline class="st16" points="-220,177 -220,183 -226,183 			"/>
			<line class="st23" x1="-237.56" y1="183" x2="-324.22" y2="183"/>
			<polyline class="st16" points="-330,183 -336,183 -336,177 			"/>
			<line class="st24" x1="-336" y1="164.6" x2="-336" y2="121.2"/>
			<polyline class="st16" points="-336,115 -336,109 -330,109 			"/>
			<line class="st23" x1="-318.44" y1="109" x2="-231.78" y2="109"/>
			<polyline class="st16" points="-226,109 -220,109 -220,115 			"/>
			<line class="st24" x1="-220" y1="127.4" x2="-220" y2="170.8"/>
		</g>
	</g>
	<text transform="matrix(1 0 0 1 -306.4785 220.3726)" class="st3" style="font-family:'Metropolis-SemiBold'; font-size:21px;">110px</text>
	<text transform="matrix(0 -1 1 0 -187.1558 177.6572)" class="st3" style="font-family:'Metropolis-SemiBold'; font-size:21px;">70 px</text>
	<polygon style="display:inline;fill:none;" points="-281.2,144.59 -272.01,144.59 -272.01,144.59 -281.2,144.59 	"/>
	<polygon style="display:inline;fill:none;" points="-142.04,85.59 -140.17,85.59 -140.17,85.59 -142.04,85.59 	"/>
	<g class="st3">
		<g>
			<polyline class="st16" points="-1584,723 -1584,729 -1590,729 			"/>
			<line class="st25" x1="-1602.33" y1="729" x2="-1768.83" y2="729"/>
			<polyline class="st16" points="-1775,729 -1781,729 -1781,723 			"/>
			<line class="st26" x1="-1781" y1="711.92" x2="-1781" y2="584.54"/>
			<polyline class="st16" points="-1781,579 -1781,573 -1775,573 			"/>
			<line class="st25" x1="-1762.67" y1="573" x2="-1596.17" y2="573"/>
			<polyline class="st16" points="-1590,573 -1584,573 -1584,579 			"/>
			<line class="st26" x1="-1584" y1="590.08" x2="-1584" y2="717.46"/>
		</g>
	</g>
	<g class="st3">
		<rect x="-1470.84" y="570.6" class="st12" width="197" height="156"/>
		<g>
			<polyline class="st27" points="-1273.84,720.6 -1273.84,726.6 -1279.84,726.6 			"/>
			<line class="st28" x1="-1292.18" y1="726.6" x2="-1458.68" y2="726.6"/>
			<polyline class="st27" points="-1464.84,726.6 -1470.84,726.6 -1470.84,720.6 			"/>
			<line class="st29" x1="-1470.84" y1="709.52" x2="-1470.84" y2="582.14"/>
			<polyline class="st27" points="-1470.84,576.6 -1470.84,570.6 -1464.84,570.6 			"/>
			<line class="st28" x1="-1452.51" y1="570.6" x2="-1286.01" y2="570.6"/>
			<polyline class="st27" points="-1279.84,570.6 -1273.84,570.6 -1273.84,576.6 			"/>
			<line class="st29" x1="-1273.84" y1="587.68" x2="-1273.84" y2="715.06"/>
		</g>
	</g>
	<text transform="matrix(1 0 0 1 -1705.4785 768.3726)" class="st3" style="font-family:'Metropolis-SemiBold'; font-size:21px;">180px</text>
	<text transform="matrix(0 -1 1 0 -1559.1558 683.6572)" class="st3" style="font-family:'Metropolis-SemiBold'; font-size:21px;">135px</text>
	<text transform="matrix(1 0 0 1 -1390.4785 768.3726)" class="st3" style="font-family:'Metropolis-SemiBold'; font-size:21px;">180px</text>
	<text transform="matrix(0 -1 1 0 -1244.1558 683.6572)" class="st3" style="font-family:'Metropolis-SemiBold'; font-size:21px;">135px</text>
	<g id="FIFO_4_" class="st3">
		<g id="dots_line_4_">
			<rect x="-1158.33" y="-643.52" class="st11" width="236.54" height="2"/>
			<circle class="st11" cx="-1156.47" cy="-642.52" r="12.5"/>
			<circle class="st11" cx="-1090.05" cy="-642.52" r="12.5"/>
			<circle class="st11" cx="-1024.18" cy="-642.52" r="12.5"/>
			<circle class="st12" cx="-923.46" cy="-642.52" r="12.5"/>
			
				<text transform="matrix(1 0 0 1 -1164.5786 -597.692)" class="st12" style="font-family:'Metropolis-SemiBold'; font-size:30px;">sua fila de jogos</text>
		</g>
		<g id="fifo_text_4_">
			<path class="st4" d="M-1142.69-791.15h23.51v23.21h-23.51v95.62h-27.35v-95.62h-22.63v-23.21h22.63v-12.41
				c0-20,13.79-34.25,33.56-34.25c8.96,0,18.62,3.68,25.28,9.42l-8.05,17.93c-2.53-2.53-6.9-4.37-11.72-4.37
				c-6.67,0-11.72,5.75-11.72,13.79V-791.15z"/>
			<path class="st4" d="M-1105.68-819.72c0-8.51,7.13-15.86,16.09-15.86c8.73,0,15.86,7.35,15.86,15.86
				c0,8.5-7.13,16.09-15.86,16.09C-1098.56-803.63-1105.68-811.22-1105.68-819.72z M-1103.84-791.15h28.04v118.83h-28.04V-791.15z"
				/>
			<path class="st4" d="M-1010.55-791.15h23.66v23.21h-23.66v95.62h-27.35v-95.62h-22.48v-23.21h22.48v-12.41
				c0-20,13.79-34.25,33.56-34.25c8.96,0,18.62,3.68,25.28,9.42l-8.04,17.93c-2.53-2.53-6.9-4.37-11.72-4.37
				c-6.67,0-11.72,5.75-11.72,13.79V-791.15z"/>
			<path class="st4" d="M-987.17-731.84c0-33.79,29.19-62.06,63.67-62.06s63.67,28.27,63.67,62.06s-29.19,62.29-63.67,62.29
				S-987.17-698.06-987.17-731.84z M-887.41-731.84c0-20.69-16.55-38.16-36.09-38.16c-19.77,0-36.32,17.47-36.32,38.16
				c0,20.92,16.55,38.38,36.32,38.38C-903.96-693.46-887.41-710.93-887.41-731.84z"/>
			<rect x="-1115.91" y="-791.42" class="st10" width="13.61" height="119.22"/>
			<rect x="-1075.62" y="-791.42" class="st10" width="13.61" height="119.22"/>
			<rect x="-990.7" y="-791.42" class="st10" width="13.61" height="119.22"/>
		</g>
	</g>
	<g id="FIFO_1_" class="st3">
		<g id="dots_line_1_">
			<rect x="-544.33" y="-643.52" class="st13" width="236.54" height="2"/>
			<circle class="st13" cx="-542.47" cy="-642.52" r="12.5"/>
			<circle class="st13" cx="-476.05" cy="-642.52" r="12.5"/>
			<circle class="st13" cx="-410.18" cy="-642.52" r="12.5"/>
			<circle class="st14" cx="-309.46" cy="-642.52" r="12.5"/>
			<text transform="matrix(1 0 0 1 -550.5786 -597.692)" class="st14" style="font-family:'Metropolis-SemiBold'; font-size:30px;">sua fila de jogos</text>
		</g>
		<g id="fifo_text_1_">
			<path class="st9" d="M-528.69-791.15h23.51v23.21h-23.51v95.62h-27.35v-95.62h-22.63v-23.21h22.63v-12.41
				c0-20,13.79-34.25,33.56-34.25c8.96,0,18.62,3.68,25.28,9.42l-8.04,17.93c-2.53-2.53-6.9-4.37-11.72-4.37
				c-6.67,0-11.72,5.75-11.72,13.79V-791.15z"/>
			<path class="st9" d="M-491.68-819.72c0-8.51,7.13-15.86,16.09-15.86c8.73,0,15.86,7.35,15.86,15.86c0,8.5-7.13,16.09-15.86,16.09
				C-484.56-803.63-491.68-811.22-491.68-819.72z M-489.84-791.15h28.04v118.83h-28.04V-791.15z"/>
			<path class="st9" d="M-396.55-791.15h23.66v23.21h-23.66v95.62h-27.35v-95.62h-22.48v-23.21h22.48v-12.41
				c0-20,13.79-34.25,33.56-34.25c8.96,0,18.62,3.68,25.28,9.42l-8.04,17.93c-2.53-2.53-6.9-4.37-11.72-4.37
				c-6.67,0-11.72,5.75-11.72,13.79V-791.15z"/>
			<path class="st9" d="M-373.17-731.84c0-33.79,29.19-62.06,63.67-62.06s63.67,28.27,63.67,62.06s-29.19,62.29-63.67,62.29
				S-373.17-698.06-373.17-731.84z M-273.41-731.84c0-20.69-16.55-38.16-36.09-38.16c-19.77,0-36.32,17.47-36.32,38.16
				c0,20.92,16.55,38.38,36.32,38.38C-289.96-693.46-273.41-710.93-273.41-731.84z"/>
			<rect x="-501.91" y="-791.42" class="st15" width="13.61" height="119.22"/>
			<rect x="-461.62" y="-791.42" class="st15" width="13.61" height="119.22"/>
			<rect x="-376.7" y="-791.42" class="st15" width="13.61" height="119.22"/>
		</g>
	</g>
	<g id="FIFO_11_" class="st3">
		<g id="dots_line_11_">
			<rect x="-1793.01" y="274.32" class="st11" width="248.74" height="2.1"/>
			<circle class="st11" cx="-1791.06" cy="275.37" r="13.14"/>
			<circle class="st11" cx="-1721.21" cy="275.37" r="13.14"/>
			<circle class="st11" cx="-1651.95" cy="275.37" r="13.14"/>
			<circle class="st12" cx="-1546.04" cy="275.37" r="13.14"/>
			
				<text transform="matrix(1 0 0 1 -1799.5872 322.5143)" class="st12" style="font-family:'Metropolis-SemiBold'; font-size:31.5469px;">sua fila de jogos</text>
		</g>
		<g id="fifo_text_11_">
			<path class="st4" d="M-1776.56,119.09h24.72v24.41h-24.72v100.55h-28.76V143.5h-23.8v-24.41h23.8v-13.05
				c0-21.03,14.5-36.01,35.29-36.01c9.43,0,19.58,3.87,26.59,9.91l-8.46,18.85c-2.66-2.66-7.25-4.59-12.33-4.59
				c-7.01,0-12.33,6.04-12.33,14.5V119.09z"/>
			<path class="st4" d="M-1737.65,89.04c0-8.94,7.49-16.68,16.92-16.68c9.18,0,16.68,7.73,16.68,16.68
				c0,8.94-7.49,16.92-16.68,16.92C-1730.16,105.96-1737.65,97.98-1737.65,89.04z M-1735.72,119.09h29.49v124.96h-29.49V119.09z"/>
			<path class="st4" d="M-1637.62,119.09h24.88v24.41h-24.88v100.55h-28.76V143.5h-23.64v-24.41h23.64v-13.05
				c0-21.03,14.5-36.01,35.29-36.01c9.43,0,19.58,3.87,26.59,9.91l-8.46,18.85c-2.66-2.66-7.25-4.59-12.33-4.59
				c-7.01,0-12.33,6.04-12.33,14.5V119.09z"/>
			<path class="st4" d="M-1613.03,181.45c0-35.53,30.7-65.26,66.95-65.26s66.95,29.73,66.95,65.26s-30.7,65.5-66.95,65.5
				S-1613.03,216.98-1613.03,181.45z M-1508.13,181.45c0-21.75-17.4-40.12-37.95-40.12c-20.79,0-38.19,18.37-38.19,40.12
				c0,21.99,17.4,40.36,38.19,40.36C-1525.53,221.81-1508.13,203.44-1508.13,181.45z"/>
			<rect x="-1748.41" y="118.8" class="st10" width="14.31" height="125.37"/>
			<rect x="-1706.04" y="118.8" class="st10" width="14.31" height="125.37"/>
			<rect x="-1616.74" y="118.8" class="st10" width="14.31" height="125.37"/>
		</g>
	</g>
	<g class="st3">
		<rect x="-1350.19" y="61.09" class="st12" width="368" height="266.24"/>
		<g>
			<polyline class="st27" points="-982.19,321.32 -982.19,327.32 -988.19,327.32 			"/>
			<line class="st30" x1="-1000.46" y1="327.32" x2="-1338.05" y2="327.32"/>
			<polyline class="st27" points="-1344.19,327.32 -1350.19,327.32 -1350.19,321.32 			"/>
			<line class="st31" x1="-1350.19" y1="309.22" x2="-1350.19" y2="73.14"/>
			<polyline class="st27" points="-1350.19,67.09 -1350.19,61.09 -1344.19,61.09 			"/>
			<line class="st30" x1="-1331.91" y1="61.09" x2="-994.33" y2="61.09"/>
			<polyline class="st27" points="-988.19,61.09 -982.19,61.09 -982.19,67.09 			"/>
			<line class="st31" x1="-982.19" y1="79.19" x2="-982.19" y2="315.27"/>
		</g>
	</g>
	<text transform="matrix(1 0 0 1 -1205.4785 363.3726)" class="st3" style="font-family:'Metropolis-SemiBold'; font-size:21px;">420px</text>
	<text transform="matrix(0 -1 1 0 -958.1558 225.6572)" class="st3" style="font-family:'Metropolis-SemiBold'; font-size:21px;">315px</text>
	<g id="FIFO_9_" class="st3">
		<g id="dots_line_9_">
			<rect x="-1305.08" y="267.76" class="st8" width="248.74" height="2.1"/>
			<circle class="st8" cx="-1303.12" cy="268.81" r="13.14"/>
			<circle class="st8" cx="-1233.28" cy="268.81" r="13.14"/>
			<circle class="st8" cx="-1164.01" cy="268.81" r="13.14"/>
			<circle class="st9" cx="-1058.1" cy="268.81" r="13.14"/>
			
				<text transform="matrix(1 0 0 1 -1311.6495 315.9551)" class="st8" style="font-family:'Metropolis-SemiBold'; font-size:31.5469px;">sua fila de jogos</text>
		</g>
		<g id="fifo_text_9_">
			<path class="st4" d="M-1288.63,112.53h24.72v24.41h-24.72v100.55h-28.76V136.94h-23.8v-24.41h23.8V99.48
				c0-21.03,14.5-36.01,35.29-36.01c9.43,0,19.58,3.87,26.59,9.91l-8.46,18.85c-2.66-2.66-7.25-4.59-12.33-4.59
				c-7.01,0-12.33,6.04-12.33,14.5V112.53z"/>
			<path class="st4" d="M-1249.71,82.48c0-8.94,7.49-16.68,16.92-16.68c9.18,0,16.68,7.73,16.68,16.68
				c0,8.94-7.49,16.92-16.68,16.92C-1242.22,99.4-1249.71,91.42-1249.71,82.48z M-1247.78,112.53h29.49v124.96h-29.49V112.53z"/>
			<path class="st4" d="M-1149.68,112.53h24.88v24.41h-24.88v100.55h-28.76V136.94h-23.64v-24.41h23.64V99.48
				c0-21.03,14.5-36.01,35.29-36.01c9.43,0,19.58,3.87,26.59,9.91l-8.46,18.85c-2.66-2.66-7.25-4.59-12.33-4.59
				c-7.01,0-12.33,6.04-12.33,14.5V112.53z"/>
			<path class="st4" d="M-1125.09,174.89c0-35.53,30.7-65.26,66.95-65.26s66.95,29.73,66.95,65.26s-30.7,65.5-66.95,65.5
				S-1125.09,210.42-1125.09,174.89z M-1020.19,174.89c0-21.75-17.4-40.12-37.95-40.12c-20.79,0-38.19,18.37-38.19,40.12
				c0,21.99,17.4,40.36,38.19,40.36C-1037.59,215.25-1020.19,196.88-1020.19,174.89z"/>
			<rect x="-1260.47" y="112.24" class="st10" width="14.31" height="125.37"/>
			<rect x="-1218.11" y="112.24" class="st10" width="14.31" height="125.37"/>
			<rect x="-1128.8" y="112.24" class="st10" width="14.31" height="125.37"/>
		</g>
	</g>
	<g id="FIFO_10_" class="st3">
		<g id="dots_line_10_">
			<rect x="-1756.55" y="691.59" class="st11" width="127.92" height="1.08"/>
			<circle class="st11" cx="-1755.55" cy="692.13" r="6.76"/>
			<circle class="st11" cx="-1719.63" cy="692.13" r="6.76"/>
			<circle class="st11" cx="-1684" cy="692.13" r="6.76"/>
			<circle class="st12" cx="-1629.54" cy="692.13" r="6.76"/>
			
				<text transform="matrix(1 0 0 1 -1759.9336 716.3789)" class="st12" style="font-family:'Metropolis-SemiBold'; font-size:16.2241px;">sua fila de jogos</text>
		</g>
		<g id="fifo_text_10_">
			<path class="st4" d="M-1748.09,611.76h12.71v12.55h-12.71v51.71h-14.79v-51.71h-12.24v-12.55h12.24v-6.71
				c0-10.81,7.46-18.52,18.15-18.52c4.85,0,10.07,1.99,13.67,5.1l-4.35,9.7c-1.37-1.37-3.73-2.36-6.34-2.36
				c-3.6,0-6.34,3.11-6.34,7.46V611.76z"/>
			<path class="st4" d="M-1728.08,596.31c0-4.6,3.85-8.58,8.7-8.58c4.72,0,8.58,3.98,8.58,8.58c0,4.6-3.85,8.7-8.58,8.7
				C-1724.23,605.01-1728.08,600.9-1728.08,596.31z M-1727.09,611.76h15.17v64.27h-15.17V611.76z"/>
			<path class="st4" d="M-1676.63,611.76h12.8v12.55h-12.8v51.71h-14.79v-51.71h-12.16v-12.55h12.16v-6.71
				c0-10.81,7.46-18.52,18.15-18.52c4.85,0,10.07,1.99,13.67,5.1l-4.35,9.7c-1.37-1.37-3.73-2.36-6.34-2.36
				c-3.6,0-6.34,3.11-6.34,7.46V611.76z"/>
			<path class="st4" d="M-1663.99,643.83c0-18.27,15.79-33.56,34.43-33.56c18.65,0,34.43,15.29,34.43,33.56
				s-15.79,33.69-34.43,33.69C-1648.2,677.51-1663.99,662.1-1663.99,643.83z M-1610.04,643.83c0-11.19-8.95-20.63-19.52-20.63
				c-10.69,0-19.64,9.45-19.64,20.63c0,11.31,8.95,20.76,19.64,20.76C-1618.99,664.59-1610.04,655.14-1610.04,643.83z"/>
			<rect x="-1733.61" y="611.61" class="st10" width="7.36" height="64.48"/>
			<rect x="-1711.83" y="611.61" class="st10" width="7.36" height="64.48"/>
			<rect x="-1665.9" y="611.61" class="st10" width="7.36" height="64.48"/>
		</g>
	</g>
	<g id="FIFO_2_" class="st3">
		<g id="dots_line_2_">
			<rect x="-1443.77" y="686.43" class="st8" width="127.92" height="1.08"/>
			<circle class="st8" cx="-1442.77" cy="686.97" r="6.76"/>
			<circle class="st8" cx="-1406.85" cy="686.97" r="6.76"/>
			<circle class="st8" cx="-1371.22" cy="686.97" r="6.76"/>
			<circle class="st9" cx="-1316.76" cy="686.97" r="6.76"/>
			
				<text transform="matrix(1 0 0 1 -1447.1526 711.2166)" class="st8" style="font-family:'Metropolis-SemiBold'; font-size:16.2241px;">sua fila de jogos</text>
		</g>
		<g id="fifo_text_2_">
			<path class="st4" d="M-1435.31,606.6h12.71v12.55h-12.71v51.71h-14.79v-51.71h-12.24V606.6h12.24v-6.71
				c0-10.81,7.46-18.52,18.15-18.52c4.85,0,10.07,1.99,13.67,5.1l-4.35,9.7c-1.37-1.37-3.73-2.36-6.34-2.36
				c-3.6,0-6.34,3.11-6.34,7.46V606.6z"/>
			<path class="st4" d="M-1415.3,591.14c0-4.6,3.85-8.58,8.7-8.58c4.72,0,8.58,3.98,8.58,8.58c0,4.6-3.85,8.7-8.58,8.7
				C-1411.45,599.85-1415.3,595.74-1415.3,591.14z M-1414.31,606.6h15.17v64.27h-15.17V606.6z"/>
			<path class="st4" d="M-1363.85,606.6h12.8v12.55h-12.8v51.71h-14.79v-51.71h-12.16V606.6h12.16v-6.71
				c0-10.81,7.46-18.52,18.15-18.52c4.85,0,10.07,1.99,13.67,5.1l-4.35,9.7c-1.37-1.37-3.73-2.36-6.34-2.36
				c-3.6,0-6.34,3.11-6.34,7.46V606.6z"/>
			<path class="st4" d="M-1351.21,638.67c0-18.27,15.79-33.56,34.43-33.56c18.65,0,34.43,15.29,34.43,33.56
				s-15.79,33.69-34.43,33.69C-1335.42,672.35-1351.21,656.94-1351.21,638.67z M-1297.26,638.67c0-11.19-8.95-20.63-19.52-20.63
				c-10.69,0-19.64,9.45-19.64,20.63c0,11.31,8.95,20.76,19.64,20.76C-1306.21,659.43-1297.26,649.98-1297.26,638.67z"/>
			<rect x="-1420.83" y="606.45" class="st10" width="7.36" height="64.48"/>
			<rect x="-1399.05" y="606.45" class="st10" width="7.36" height="64.48"/>
			<rect x="-1353.12" y="606.45" class="st10" width="7.36" height="64.48"/>
		</g>
	</g>
	
		<text transform="matrix(0 -1 1 0 -1974.4033 -225.5625)" class="st3" style="font-family:'Metropolis-SemiBold'; font-size:55.7218px; letter-spacing:1;">LOGO APLICAÇÕES</text>
	
		<text transform="matrix(0 -1 1 0 -1974.4033 301.4375)" class="st3" style="font-family:'Metropolis-SemiBold'; font-size:55.7218px; letter-spacing:1;">DESKTOP</text>
	
		<text transform="matrix(0 -1 1 0 -1974.4033 779.4375)" class="st3" style="font-family:'Metropolis-SemiBold'; font-size:55.7218px; letter-spacing:1;">MOBILE</text>
	<line class="st32" x1="-2059.5" y1="-108.5" x2="-100.5" y2="-108.5"/>
	<line class="st32" x1="-2059.5" y1="420.5" x2="-100.5" y2="420.5"/>
</g>
<g id="Camada_7">
	<g id="FIFO_21_">
		<g id="dots_line_21_">
			<rect x="18.34" y="62.24" class="st11" width="67.01" height="0.6"/>
			<ellipse class="st11" cx="18.86" cy="62.54" rx="3.54" ry="3.61"/>
			<ellipse class="st11" cx="37.68" cy="62.54" rx="3.54" ry="3.61"/>
			<ellipse class="st11" cx="56.34" cy="62.54" rx="3.54" ry="3.61"/>
			<ellipse class="st12" cx="84.87" cy="62.54" rx="3.54" ry="3.61"/>
		</g>
		<g id="fifo_text_21_">
			<path class="st4" d="M22.77,19.63h6.66v6.7h-6.66v27.61h-7.75V26.33H8.61v-6.7h6.41v-3.58c0-5.77,3.91-9.89,9.51-9.89
				c2.54,0,5.27,1.06,7.16,2.72l-2.28,5.18c-0.72-0.73-1.95-1.26-3.32-1.26c-1.89,0-3.32,1.66-3.32,3.98V19.63z"/>
			<path class="st4" d="M33.25,11.38c0-2.46,2.02-4.58,4.56-4.58c2.47,0,4.49,2.12,4.49,4.58c0,2.46-2.02,4.65-4.49,4.65
				C35.27,16.02,33.25,13.83,33.25,11.38z M33.77,19.63h7.94v34.31h-7.94V19.63z"/>
			<path class="st4" d="M60.2,19.63h6.7v6.7h-6.7v27.61h-7.75V26.33h-6.37v-6.7h6.37v-3.58c0-5.77,3.91-9.89,9.51-9.89
				c2.54,0,5.27,1.06,7.16,2.72l-2.28,5.18c-0.72-0.73-1.95-1.26-3.32-1.26c-1.89,0-3.32,1.66-3.32,3.98V19.63z"/>
			<path class="st4" d="M66.82,36.75c0-9.76,8.27-17.92,18.04-17.92s18.04,8.16,18.04,17.92s-8.27,17.99-18.04,17.99
				S66.82,46.51,66.82,36.75z M95.08,36.75c0-5.97-4.69-11.02-10.22-11.02c-5.6,0-10.29,5.04-10.29,11.02
				c0,6.04,4.69,11.08,10.29,11.08C90.39,47.84,95.08,42.79,95.08,36.75z"/>
			<rect x="30.35" y="19.55" class="st10" width="3.86" height="34.43"/>
			<rect x="41.76" y="19.55" class="st10" width="3.86" height="34.43"/>
			<rect x="65.82" y="19.55" class="st10" width="3.86" height="34.43"/>
		</g>
	</g>
</g>
<g id="Camada_6" class="st0">
	<g id="FIFO_19_" class="st3">
		<g id="dots_line_19_">
			<rect x="18.82" y="-47.64" class="st11" width="127.92" height="1.12"/>
			<ellipse class="st11" cx="19.83" cy="-47.08" rx="6.76" ry="6.74"/>
			<ellipse class="st11" cx="55.75" cy="-47.08" rx="6.76" ry="6.74"/>
			<ellipse class="st11" cx="91.37" cy="-47.08" rx="6.76" ry="6.74"/>
			<ellipse class="st12" cx="145.84" cy="-47.08" rx="6.76" ry="6.74"/>
		</g>
		<g id="fifo_text_19_">
			<path class="st4" d="M27.28-127.2H40v12.51H27.28v51.54H12.49v-51.54H0.25v-12.51h12.24v-6.69c0-10.78,7.46-18.46,18.15-18.46
				c4.85,0,10.07,1.98,13.67,5.08l-4.35,9.66c-1.37-1.36-3.73-2.35-6.34-2.35c-3.6,0-6.34,3.1-6.34,7.43V-127.2z"/>
			<path class="st4" d="M47.29-142.6c0-4.58,3.85-8.55,8.7-8.55c4.72,0,8.58,3.96,8.58,8.55c0,4.58-3.85,8.67-8.58,8.67
				C51.15-133.92,47.29-138.01,47.29-142.6z M48.29-127.2h15.17v64.05H48.29V-127.2z"/>
			<path class="st4" d="M98.74-127.2h12.8v12.51h-12.8v51.54H83.95v-51.54H71.79v-12.51h12.16v-6.69c0-10.78,7.46-18.46,18.15-18.46
				c4.85,0,10.07,1.98,13.67,5.08l-4.35,9.66c-1.37-1.36-3.73-2.35-6.34-2.35c-3.6,0-6.34,3.1-6.34,7.43V-127.2z"/>
			<path class="st4" d="M111.39-95.23c0-18.21,15.79-33.45,34.43-33.45s34.43,15.24,34.43,33.45s-15.79,33.58-34.43,33.58
				S111.39-77.02,111.39-95.23z M165.33-95.23c0-11.15-8.95-20.57-19.52-20.57c-10.69,0-19.64,9.42-19.64,20.57
				c0,11.27,8.95,20.69,19.64,20.69C156.38-74.54,165.33-83.96,165.33-95.23z"/>
			<rect x="41.76" y="-127.34" class="st10" width="7.36" height="64.26"/>
			<rect x="63.55" y="-127.34" class="st10" width="7.36" height="64.26"/>
			<rect x="109.48" y="-127.34" class="st10" width="7.36" height="64.26"/>
		</g>
	</g>
	<g id="FIFO_20_" class="st3">
		<g id="dots_line_20_">
			<rect x="18.82" y="-47.64" class="st8" width="127.92" height="1.12"/>
			<ellipse class="st8" cx="19.83" cy="-47.08" rx="6.76" ry="6.74"/>
			<ellipse class="st8" cx="55.75" cy="-47.08" rx="6.76" ry="6.74"/>
			<ellipse class="st8" cx="91.37" cy="-47.08" rx="6.76" ry="6.74"/>
			<ellipse class="st9" cx="145.84" cy="-47.08" rx="6.76" ry="6.74"/>
		</g>
		<g id="fifo_text_20_">
			<path class="st4" d="M27.28-127.2H40v12.51H27.28v51.54H12.49v-51.54H0.25v-12.51h12.24v-6.69c0-10.78,7.46-18.46,18.15-18.46
				c4.85,0,10.07,1.98,13.67,5.08l-4.35,9.66c-1.37-1.36-3.73-2.35-6.34-2.35c-3.6,0-6.34,3.1-6.34,7.43V-127.2z"/>
			<path class="st4" d="M47.29-142.6c0-4.58,3.85-8.55,8.7-8.55c4.72,0,8.58,3.96,8.58,8.55c0,4.58-3.85,8.67-8.58,8.67
				C51.15-133.92,47.29-138.01,47.29-142.6z M48.29-127.2h15.17v64.05H48.29V-127.2z"/>
			<path class="st4" d="M98.74-127.2h12.8v12.51h-12.8v51.54H83.95v-51.54H71.79v-12.51h12.16v-6.69c0-10.78,7.46-18.46,18.15-18.46
				c4.85,0,10.07,1.98,13.67,5.08l-4.35,9.66c-1.37-1.36-3.73-2.35-6.34-2.35c-3.6,0-6.34,3.1-6.34,7.43V-127.2z"/>
			<path class="st4" d="M111.39-95.23c0-18.21,15.79-33.45,34.43-33.45s34.43,15.24,34.43,33.45s-15.79,33.58-34.43,33.58
				S111.39-77.02,111.39-95.23z M165.33-95.23c0-11.15-8.95-20.57-19.52-20.57c-10.69,0-19.64,9.42-19.64,20.57
				c0,11.27,8.95,20.69,19.64,20.69C156.38-74.54,165.33-83.96,165.33-95.23z"/>
			<rect x="41.76" y="-127.34" class="st10" width="7.36" height="64.26"/>
			<rect x="63.55" y="-127.34" class="st10" width="7.36" height="64.26"/>
			<rect x="109.48" y="-127.34" class="st10" width="7.36" height="64.26"/>
		</g>
	</g>
</g>
<g id="Camada_5" class="st0">
	<g id="FIFO_18_" class="st3">
		<g id="dots_line_18_">
			<rect x="18.84" y="-234.99" class="st11" width="127.92" height="1.08"/>
			<circle class="st11" cx="19.84" cy="-234.45" r="6.76"/>
			<circle class="st11" cx="55.76" cy="-234.45" r="6.76"/>
			<circle class="st11" cx="91.39" cy="-234.45" r="6.76"/>
			<circle class="st12" cx="145.85" cy="-234.45" r="6.76"/>
			
				<text transform="matrix(1 0 0 1 15.457 -210.2019)" class="st12" style="font-family:'Metropolis-SemiBold'; font-size:16.2241px;">sua fila de jogos</text>
		</g>
		<g id="fifo_text_18_">
			<path class="st4" d="M27.3-314.82h12.71v12.55H27.3v51.71H12.5v-51.71H0.27v-12.55H12.5v-6.71c0-10.81,7.46-18.52,18.15-18.52
				c4.85,0,10.07,1.99,13.67,5.1l-4.35,9.7c-1.37-1.37-3.73-2.36-6.34-2.36c-3.6,0-6.34,3.11-6.34,7.46V-314.82z"/>
			<path class="st4" d="M47.31-330.28c0-4.6,3.85-8.58,8.7-8.58c4.72,0,8.58,3.98,8.58,8.58c0,4.6-3.85,8.7-8.58,8.7
				C51.16-321.57,47.31-325.68,47.31-330.28z M48.3-314.82h15.17v64.27H48.3V-314.82z"/>
			<path class="st4" d="M98.76-314.82h12.8v12.55h-12.8v51.71H83.96v-51.71H71.81v-12.55h12.16v-6.71
				c0-10.81,7.46-18.52,18.15-18.52c4.85,0,10.07,1.99,13.67,5.1l-4.35,9.7c-1.37-1.37-3.73-2.36-6.34-2.36
				c-3.6,0-6.34,3.11-6.34,7.46V-314.82z"/>
			<path class="st4" d="M111.4-282.75c0-18.27,15.79-33.56,34.43-33.56s34.43,15.29,34.43,33.56s-15.79,33.69-34.43,33.69
				S111.4-264.48,111.4-282.75z M165.35-282.75c0-11.19-8.95-20.63-19.52-20.63c-10.69,0-19.64,9.45-19.64,20.63
				c0,11.31,8.95,20.76,19.64,20.76C156.4-261.99,165.35-271.44,165.35-282.75z"/>
			<rect x="41.78" y="-314.97" class="st10" width="7.36" height="64.48"/>
			<rect x="63.56" y="-314.97" class="st10" width="7.36" height="64.48"/>
			<rect x="109.49" y="-314.97" class="st10" width="7.36" height="64.48"/>
		</g>
	</g>
	<g id="FIFO_17_" class="st3">
		<g id="dots_line_17_" class="st0">
			<rect x="18.84" y="-234.99" class="st33" width="127.92" height="1.08"/>
			<circle class="st33" cx="19.84" cy="-234.45" r="6.76"/>
			<circle class="st33" cx="55.76" cy="-234.45" r="6.76"/>
			<circle class="st33" cx="91.39" cy="-234.45" r="6.76"/>
			<circle class="st7" cx="145.85" cy="-234.45" r="6.76"/>
			
				<text transform="matrix(1 0 0 1 15.4568 -210.2026)" class="st33" style="font-family:'Metropolis-SemiBold'; font-size:16.2241px;">sua fila de jogos</text>
		</g>
		<g id="fifo_text_17_" class="st0">
			<path class="st34" d="M27.3-314.82h12.71v12.55H27.3v51.71H12.5v-51.71H0.27v-12.55H12.5v-6.71c0-10.81,7.46-18.52,18.15-18.52
				c4.85,0,10.07,1.99,13.67,5.1l-4.35,9.7c-1.37-1.37-3.73-2.36-6.34-2.36c-3.6,0-6.34,3.11-6.34,7.46V-314.82z"/>
			<path class="st34" d="M47.31-330.28c0-4.6,3.85-8.58,8.7-8.58c4.72,0,8.58,3.98,8.58,8.58c0,4.6-3.85,8.7-8.58,8.7
				C51.16-321.57,47.31-325.68,47.31-330.28z M48.3-314.82h15.17v64.27H48.3V-314.82z"/>
			<path class="st34" d="M98.76-314.82h12.8v12.55h-12.8v51.71H83.96v-51.71H71.81v-12.55h12.16v-6.71
				c0-10.81,7.46-18.52,18.15-18.52c4.85,0,10.07,1.99,13.67,5.1l-4.35,9.7c-1.37-1.37-3.73-2.36-6.34-2.36
				c-3.6,0-6.34,3.11-6.34,7.46V-314.82z"/>
			<path class="st34" d="M111.4-282.75c0-18.27,15.79-33.56,34.43-33.56s34.43,15.29,34.43,33.56c0,18.27-15.79,33.69-34.43,33.69
				S111.4-264.48,111.4-282.75z M165.35-282.75c0-11.19-8.95-20.63-19.52-20.63c-10.69,0-19.64,9.45-19.64,20.63
				c0,11.31,8.95,20.76,19.64,20.76C156.4-261.99,165.35-271.44,165.35-282.75z"/>
			<rect x="41.78" y="-314.97" class="st4" width="7.36" height="64.48"/>
			<rect x="63.56" y="-314.97" class="st4" width="7.36" height="64.48"/>
			<rect x="109.49" y="-314.97" class="st4" width="7.36" height="64.48"/>
		</g>
	</g>
</g>
<g id="Camada_4" class="st0">
	<g id="FIFO_16_" class="st3">
		<g id="dots_line_16_">
			<rect x="36.68" y="-413.04" class="st8" width="247.89" height="2.1"/>
			<ellipse class="st8" cx="38.63" cy="-412" rx="13.1" ry="13.11"/>
			<ellipse class="st8" cx="108.24" cy="-412" rx="13.1" ry="13.11"/>
			<ellipse class="st8" cx="177.27" cy="-412" rx="13.1" ry="13.11"/>
			<ellipse class="st9" cx="282.81" cy="-412" rx="13.1" ry="13.11"/>
		</g>
		<g id="fifo_text_16_">
			<path class="st4" d="M53.08-567.93h24.64v24.36H53.08v100.32H24.41v-100.32H0.69v-24.36h23.72v-13.02
				c0-20.98,14.45-35.93,35.17-35.93c9.39,0,19.51,3.86,26.5,9.89l-8.43,18.81c-2.65-2.65-7.23-4.58-12.28-4.58
				c-6.99,0-12.28,6.03-12.28,14.47V-567.93z"/>
			<path class="st4" d="M91.86-597.9c0-8.92,7.47-16.64,16.86-16.64c9.15,0,16.62,7.72,16.62,16.64c0,8.92-7.47,16.88-16.62,16.88
				C99.32-581.02,91.86-588.98,91.86-597.9z M93.78-567.93h29.39v124.68H93.78V-567.93z"/>
			<path class="st4" d="M191.55-567.93h24.8v24.36h-24.8v100.32h-28.66v-100.32h-23.56v-24.36h23.56v-13.02
				c0-20.98,14.45-35.93,35.17-35.93c9.39,0,19.51,3.86,26.5,9.89l-8.43,18.81c-2.65-2.65-7.23-4.58-12.28-4.58
				c-6.99,0-12.28,6.03-12.28,14.47V-567.93z"/>
			<path class="st4" d="M216.05-505.71c0-35.45,30.59-65.11,66.72-65.11s66.72,29.66,66.72,65.11s-30.59,65.35-66.72,65.35
				S216.05-470.26,216.05-505.71z M320.59-505.71c0-21.7-17.34-40.03-37.82-40.03c-20.72,0-38.06,18.33-38.06,40.03
				c0,21.94,17.34,40.27,38.06,40.27C303.25-465.44,320.59-483.76,320.59-505.71z"/>
			<rect x="81.14" y="-568.21" class="st10" width="14.26" height="125.09"/>
			<rect x="123.35" y="-568.21" class="st10" width="14.26" height="125.09"/>
			<rect x="212.35" y="-568.21" class="st10" width="14.26" height="125.09"/>
		</g>
	</g>
	<g id="FIFO_15_">
		<g id="dots_line_15_" class="st3">
			<rect x="37.72" y="-413" class="st11" width="247.32" height="2.01"/>
			<ellipse class="st11" cx="39.66" cy="-412" rx="13.07" ry="13.11"/>
			<ellipse class="st11" cx="109.11" cy="-412" rx="13.07" ry="13.11"/>
			<ellipse class="st11" cx="177.98" cy="-412" rx="13.07" ry="13.11"/>
			<ellipse class="st12" cx="283.29" cy="-412" rx="13.07" ry="13.11"/>
		</g>
		<g id="fifo_text_15_" class="st3">
			<path class="st4" d="M54.07-567.93h24.58v24.36H54.07v100.32h-28.6v-100.32H1.81v-24.36h23.66v-13.02
				c0-20.98,14.42-35.93,35.09-35.93c9.37,0,19.47,3.86,26.44,9.89l-8.41,18.81c-2.64-2.65-7.21-4.58-12.26-4.58
				c-6.97,0-12.26,6.03-12.26,14.47V-567.93z"/>
			<path class="st4" d="M92.77-597.9c0-8.92,7.45-16.64,16.82-16.64c9.13,0,16.58,7.72,16.58,16.64c0,8.92-7.45,16.88-16.58,16.88
				C100.22-581.02,92.77-588.98,92.77-597.9z M94.69-567.93h29.32v124.68H94.69V-567.93z"/>
			<path class="st4" d="M192.23-567.93h24.74v24.36h-24.74v100.32h-28.6v-100.32h-23.5v-24.36h23.5v-13.02
				c0-20.98,14.42-35.93,35.09-35.93c9.37,0,19.47,3.86,26.44,9.89l-8.41,18.81c-2.64-2.65-7.21-4.58-12.26-4.58
				c-6.97,0-12.26,6.03-12.26,14.47V-567.93z"/>
			<path class="st4" d="M216.68-505.71c0-35.45,30.52-65.11,66.57-65.11s66.57,29.66,66.57,65.11s-30.52,65.35-66.57,65.35
				S216.68-470.26,216.68-505.71z M320.98-505.71c0-21.7-17.3-40.03-37.73-40.03c-20.67,0-37.97,18.33-37.97,40.03
				c0,21.94,17.3,40.27,37.97,40.27C303.68-465.44,320.98-483.76,320.98-505.71z"/>
			<rect x="82.07" y="-568.21" class="st10" width="14.23" height="125.09"/>
			<rect x="124.19" y="-568.21" class="st10" width="14.23" height="125.09"/>
			<rect x="212.99" y="-568.21" class="st10" width="14.23" height="125.09"/>
		</g>
	</g>
</g>
<g id="export_ogos" class="st0">
	<g id="FIFO_13_" class="st3">
		<g id="dots_line_13_">
			<rect x="36.96" y="-756.96" class="st11" width="248.74" height="2.1"/>
			<circle class="st11" cx="38.91" cy="-755.91" r="13.14"/>
			<circle class="st11" cx="108.75" cy="-755.91" r="13.14"/>
			<circle class="st11" cx="178.02" cy="-755.91" r="13.14"/>
			<circle class="st12" cx="283.93" cy="-755.91" r="13.14"/>
			
				<text transform="matrix(1 0 0 1 30.3817 -708.7653)" class="st12" style="font-family:'Metropolis-SemiBold'; font-size:31.5469px;">sua fila de jogos</text>
		</g>
		<g id="fifo_text_13_">
			<path class="st4" d="M53.4-912.19h24.72v24.41H53.4v100.55H24.64v-100.55H0.84v-24.41h23.8v-13.05
				c0-21.03,14.5-36.01,35.29-36.01c9.43,0,19.58,3.87,26.59,9.91l-8.46,18.85c-2.66-2.66-7.25-4.59-12.33-4.59
				c-7.01,0-12.33,6.04-12.33,14.5V-912.19z"/>
			<path class="st4" d="M92.32-942.24c0-8.94,7.49-16.68,16.92-16.68c9.18,0,16.68,7.73,16.68,16.68c0,8.94-7.49,16.92-16.68,16.92
				C99.81-925.32,92.32-933.3,92.32-942.24z M94.25-912.19h29.49v124.96H94.25V-912.19z"/>
			<path class="st4" d="M192.35-912.19h24.88v24.41h-24.88v100.55h-28.76v-100.55h-23.64v-24.41h23.64v-13.05
				c0-21.03,14.5-36.01,35.29-36.01c9.43,0,19.58,3.87,26.59,9.91l-8.46,18.85c-2.66-2.66-7.25-4.59-12.33-4.59
				c-7.01,0-12.33,6.04-12.33,14.5V-912.19z"/>
			<path class="st4" d="M216.94-849.83c0-35.53,30.7-65.26,66.95-65.26s66.95,29.73,66.95,65.26c0,35.53-30.7,65.5-66.95,65.5
				S216.94-814.3,216.94-849.83z M321.84-849.83c0-21.75-17.4-40.12-37.95-40.12c-20.79,0-38.19,18.37-38.19,40.12
				c0,21.99,17.4,40.36,38.19,40.36C304.44-809.47,321.84-827.84,321.84-849.83z"/>
			<rect x="81.56" y="-912.48" class="st10" width="14.31" height="125.37"/>
			<rect x="123.92" y="-912.48" class="st10" width="14.31" height="125.37"/>
			<rect x="213.23" y="-912.48" class="st10" width="14.31" height="125.37"/>
		</g>
	</g>
	<g id="FIFO_14_">
		<g id="dots_line_14_" class="st3">
			<rect x="36.96" y="-756.96" class="st8" width="248.74" height="2.1"/>
			<circle class="st8" cx="38.91" cy="-755.91" r="13.14"/>
			<circle class="st8" cx="108.75" cy="-755.91" r="13.14"/>
			<circle class="st8" cx="178.02" cy="-755.91" r="13.14"/>
			<circle class="st9" cx="283.93" cy="-755.91" r="13.14"/>
			
				<text transform="matrix(1 0 0 1 30.3817 -708.7654)" class="st8" style="font-family:'Metropolis-SemiBold'; font-size:31.5469px;">sua fila de jogos</text>
		</g>
		<g id="fifo_text_14_" class="st3">
			<path class="st4" d="M53.4-912.19h24.72v24.41H53.4v100.55H24.64v-100.55H0.84v-24.41h23.8v-13.05
				c0-21.03,14.5-36.01,35.29-36.01c9.43,0,19.58,3.87,26.59,9.91l-8.46,18.85c-2.66-2.66-7.25-4.59-12.33-4.59
				c-7.01,0-12.33,6.04-12.33,14.5V-912.19z"/>
			<path class="st4" d="M92.32-942.24c0-8.94,7.49-16.68,16.92-16.68c9.18,0,16.68,7.73,16.68,16.68c0,8.94-7.49,16.92-16.68,16.92
				C99.81-925.32,92.32-933.3,92.32-942.24z M94.25-912.19h29.49v124.96H94.25V-912.19z"/>
			<path class="st4" d="M192.35-912.19h24.88v24.41h-24.88v100.55h-28.76v-100.55h-23.64v-24.41h23.64v-13.05
				c0-21.03,14.5-36.01,35.29-36.01c9.43,0,19.58,3.87,26.59,9.91l-8.46,18.85c-2.66-2.66-7.25-4.59-12.33-4.59
				c-7.01,0-12.33,6.04-12.33,14.5V-912.19z"/>
			<path class="st4" d="M216.94-849.83c0-35.53,30.7-65.26,66.95-65.26s66.95,29.73,66.95,65.26c0,35.53-30.7,65.5-66.95,65.5
				S216.94-814.3,216.94-849.83z M321.84-849.83c0-21.75-17.4-40.12-37.95-40.12c-20.79,0-38.19,18.37-38.19,40.12
				c0,21.99,17.4,40.36,38.19,40.36C304.44-809.47,321.84-827.84,321.84-849.83z"/>
			<rect x="81.56" y="-912.48" class="st10" width="14.31" height="125.37"/>
			<rect x="123.92" y="-912.48" class="st10" width="14.31" height="125.37"/>
			<rect x="213.23" y="-912.48" class="st10" width="14.31" height="125.37"/>
		</g>
	</g>
</g>
<g id="logo_simplificada_OLD" class="st0">
	
		<text transform="matrix(1 0 0 1 -1893.8193 -11.0269)" class="st3" style="font-family:'Metropolis-Medium'; font-size:34.0249px;">SIMPLIFICADA</text>
	<g class="st3">
		<circle class="st12" cx="-1706" cy="79" r="70.5"/>
		<g>
			<rect x="-1860.5" y="73" class="st12" width="145" height="12"/>
		</g>
		<g>
			<defs>
				<circle id="SVGID_1_" cx="-1706" cy="79" r="70.5"/>
			</defs>
			<clipPath id="SVGID_2_">
				<use xlink:href="#SVGID_1_"  style="overflow:visible;"/>
			</clipPath>
			<path class="st35" d="M-1697.88,77.59h20.44v20.18h-20.44v83.13h-23.78V97.78h-19.67V77.59h19.67V66.8
				c0-17.38,11.99-29.77,29.17-29.77c7.79,0,16.19,3.2,21.98,8.19l-6.99,15.59c-2.2-2.2-5.99-3.8-10.19-3.8
				c-5.79,0-10.19,5-10.19,11.99V77.59z"/>
		</g>
	</g>
	<g class="st3">
		<g>
			<circle class="st11" cx="-1362" cy="79" r="70.5"/>
			<rect x="-1516.5" y="73" class="st36" width="145" height="12"/>
		</g>
		<g>
			<defs>
				<circle id="SVGID_3_" cx="-1362" cy="79" r="70.5"/>
			</defs>
			<use xlink:href="#SVGID_3_"  style="overflow:visible;fill:#E5E5E5;"/>
			<clipPath id="SVGID_4_">
				<use xlink:href="#SVGID_3_"  style="overflow:visible;"/>
			</clipPath>
			<path class="st37" d="M-1353.88,77.59h20.44v20.18h-20.44v83.13h-23.78V97.78h-19.67V77.59h19.67V66.8
				c0-17.38,11.99-29.77,29.17-29.77c7.79,0,16.19,3.2,21.98,8.19l-6.99,15.59c-2.2-2.2-5.99-3.8-10.19-3.8
				c-5.79,0-10.19,5-10.19,11.99V77.59z"/>
		</g>
	</g>
	<g class="st3">
		<circle class="st36" cx="-979" cy="79" r="70.5"/>
		<g>
			<rect x="-1133.5" y="73" class="st36" width="145" height="12"/>
		</g>
		<g>
			<defs>
				<circle id="SVGID_5_" cx="-979" cy="79" r="70.5"/>
			</defs>
			<clipPath id="SVGID_6_">
				<use xlink:href="#SVGID_5_"  style="overflow:visible;"/>
			</clipPath>
			<path class="st38" d="M-970.88,77.59h20.44v20.18h-20.44v83.13h-23.78V97.78h-19.67V77.59h19.67V66.8
				c0-17.38,11.99-29.77,29.17-29.77c7.79,0,16.19,3.2,21.98,8.19l-6.99,15.59c-2.2-2.2-5.99-3.8-10.19-3.8
				c-5.79,0-10.19,5-10.19,11.99V77.59z"/>
		</g>
	</g>
</g>
</svg>
